# xmcd
#
# Track frame offsets:
#	150
#	13710
#	30567
#	45310
#	61570
#	75362
#	92000
#	104529
#	123530
#	134672
#	152000
#	171252
#	193162
#	205860
#	219412
#	234780
#	245862
#	260465
#	274227
#	287900
#
# Disc length: 4049 seconds
#
# Revision: 1
# Processed by: cddbd v1.4b42PL1 Copyright (c) Steve Scherf et al.
# Submitted via: audiograbber 1.80
#
DISCID=190fcf14
DTITLE=Various Artist - Country Hits From The '80s
DYEAR=1900
DGENRE=
TTITLE0=Randy Travis - 1982
TTITLE1=The Oak Ridge Boys - Elvira
TTITLE2=The Judds - Mama, He´s Crazy
TTITLE3=Vince Gill - Cinderella
TTITLE4=John Anderson - Swingin'
TTITLE5=Kenny Rogers - Crazy
TTITLE6=Dolly Parton - 9 To 5
TTITLE7=Keith Whitley - Don´t Close Your Eyes
TTITLE8=Sylvia - Drifter
TTITLE9=Paul Overstreet - Sowi'n Love
TTITLE10=Hank Williams, Jr - A Country Boy Can Survive
TTITLE11=Dan Seals - Everything That Glitters (Is not Gold)
TTITLE12=Barbara Mandrell - One Of A Kind Pair Of Fools
TTITLE13=Mel McDaniel - Baby´s Got Her Blue Jeans On
TTITLE14=Eddie Rabbitt - The Wanderer
TTITLE15=Eddy Raven - I Got Mexico
TTITLE16=Ronnie Milsap - (There´s) No Gettin' Over Me
TTITLE17=Charley Pride - Never Been So Loved (In All My Life)
TTITLE18=Lee Greenwood - Hearts Aren´t Made To Break (They´re Made To Love)
TTITLE19=Steve Wariner - All Roads Lead To You
EXTD=
EXTT0=
EXTT1=
EXTT2=
EXTT3=
EXTT4=
EXTT5=
EXTT6=
EXTT7=
EXTT8=
EXTT9=
EXTT10=
EXTT11=
EXTT12=
EXTT13=
EXTT14=
EXTT15=
EXTT16=
EXTT17=
EXTT18=
EXTT19=
PLAYORDER=
